<?xml version="1.0" encoding="UTF-8"?><svg id="Layer_2" xmlns="http://www.w3.org/2000/svg" viewBox="0 0 427.32 427.32"><defs><style>.cls-1{fill:#fff;fill-rule:evenodd;}.cls-2{fill:#2c1601;}</style></defs><g id="_ÎÓÈ_1"><path class="cls-2" d="M427.32,213.66c0,59.01-23.92,112.41-62.58,151.08-32.33,32.33-74.99,54.35-122.6,60.69-9.32,1.25-18.82,1.89-28.47,1.89h0c-13.14,0-26.01-1.19-38.49-3.46C75.54,405.73,0,318.53,0,213.66c0-59.01,23.92-112.42,62.58-151.08C101.24,23.92,154.66,0,213.66,0h0c117.99,0,213.66,95.66,213.66,213.66Z"/><path class="cls-1" d="M305.14,206.34c-2.88,22.06-5.6,43.25-8.4,64.63l-54.62.02c0,21.08.02,117.68.02,154.44-9.32,1.25-18.82,1.89-28.47,1.89h0c-13.14,0-26.01-1.19-38.49-3.46v-153.13h-54.8l-.02-64.34h55.13c.31-22.76-1.4-45.79,2.04-68.34,11.15-65.66,75.92-67.81,129.45-60.46l.02,57.62c-77.57-4-63.53,10.07-65.31,71.14,3.04.02,48.02,0,63.46,0Z"/></g></svg>