<?xml version="1.0" encoding="UTF-8"?><svg id="Layer_2" xmlns="http://www.w3.org/2000/svg" viewBox="0 0 427.32 427.32"><defs><style>.cls-1{fill:#fff;}.cls-2{fill:#2c1601;}</style></defs><g id="_ÎÓÈ_1"><rect class="cls-2" x="0" y="0" width="427.32" height="427.32" rx="213.66" ry="213.66"/><path class="cls-1" d="M348.03,145.62c-1.84-17.98-8.73-33.88-22.1-46.62-14.05-13.41-31.25-19.34-50.09-20.34-32.11-1.75-108.35-2.85-135.12,1.52-30.59,4.99-50.64,22.84-59.1,53.06-6.51,23.25-5.2,130.38-1.4,153.36,5.18,31.42,23.75,51.56,54.89,59.58,21.55,5.56,127.45,4.84,151.22.98,31.44-5.08,51.67-23.55,59.84-54.63,6.24-23.86,4.05-125.38,1.86-146.91ZM322.9,282.13c-3.65,23.87-19.49,38.65-43.48,41.27-22.03,2.42-120.45,3.76-140.89-1.96-19.55-5.46-30.73-18.9-33.99-38.59-3.1-18.8-3.88-112.72-.05-137.86,3.6-23.66,19.43-38.42,43.28-41.09,24.2-2.71,111.29-3.02,134.48.53,23.81,3.65,38.57,19.52,41.19,43.55,2.44,22.42,3.15,110.05-.55,134.15ZM213.68,143.64c-38.69-.02-70.06,31.33-70.08,70.02-.02,38.69,31.33,70.06,70.02,70.08,38.69.02,70.06-31.33,70.08-70.02.02-38.69-31.33-70.06-70.02-70.08ZM213.21,258.94c-25.02-.22-45.12-20.68-44.89-45.7.22-25.02,20.68-45.12,45.7-44.9,25.02.22,45.12,20.68,44.9,45.7-.22,25.02-20.68,45.12-45.7,44.9ZM302.86,140.98c-.02,9.06-7.38,16.38-16.44,16.36-9.06-.02-16.38-7.38-16.36-16.44.02-9.06,7.38-16.38,16.44-16.36,9.06.02,16.38,7.38,16.36,16.44Z"/></g></svg>