<?xml version="1.0" encoding="UTF-8"?>
<svg id="Layer_1" xmlns="http://www.w3.org/2000/svg" xmlns:xlink="http://www.w3.org/1999/xlink" version="1.1" viewBox="0 0 2048 2048">
  <!-- Generator: Adobe Illustrator 29.3.1, SVG Export Plug-In . SVG Version: 2.1.0 Build 151)  -->
  <defs>
    <style>
      .st0 {
        fill: #9b5639;
      }
    </style>
  </defs>
  <g id="call">
    <path class="st0" d="M853.6,1194.4c91.3,85.8,196.1,155.9,310.3,207.4,65.8,30.7,144,12.4,189.3-44.3l65.9-82.1c44.5-55.4,124.6-65.9,181.9-24l275.2,201.3c59.2,43.3,72.1,126.3,28.8,185.5-5.8,7.9-12.5,15.2-19.9,21.7l-209.4,182.7c-82.3,72.8-193.9,102.8-301.6,81-181.2-38.2-474.1-148.3-787.7-462S162.6,855,124.4,673.9c-21.8-107.7,8.2-219.4,81-301.6l182.7-209.4c48.2-55.2,132.1-60.9,187.3-12.7,7.4,6.5,14.1,13.7,19.9,21.7l201.3,275.1c41.9,57.3,31.3,137.4-24,181.9l-82.1,65.9c-56.7,45.3-75.1,123.5-44.3,189.3,51.5,114.2,121.6,219,207.4,310.3Z"/>
  </g>
</svg>