<?xml version="1.0" encoding="UTF-8"?><svg id="Layer_2" xmlns="http://www.w3.org/2000/svg" viewBox="0 0 2622.81 620.87"><defs><style>.cls-1{fill:#fff;}</style></defs><g id="Layer_1-2"><path class="cls-1" d="M49.03,381.88h37.22v1.56s-4.54,1.04-4.54,2.6c-2.72,1.56-5.45,4.16-9.99,4.16-16.34,1.56-28.14,1.56-45.39,1.56H9.99c-7.26-3.12-5.45-10.93-5.45-15.09,0-3.12-1.82-13.01-1.82-14.05v-188.86c0-4.16-2.72-27.05-2.72-31.22V32.78c2.72-1.56,7.26-7.28,9.99-7.28h10.89v96.77c0,4.68,2.72,27.57,2.72,31.22v188.86c0,2.6,1.82,11.97,1.82,14.05v7.28c0,5.72.91,11.45,12.71,16.13l10.89,2.08ZM43.58,356.39c0-3.12-1.82-13.01-1.82-14.05v-188.86c0-4.16-2.72-27.05-2.72-31.22V7.8c2.72-1.56,7.26-2.6,9.99-2.6h127.1c14.53,0,33.59,1.04,47.21,5.2,7.26,1.56,12.71,5.72,17.25,8.32,26.33,16.65,34.5,38.5,34.5,60.35,0,14.05,1.82,29.14-.91,43.18,0,1.04-1.82,16.13-1.82,17.69,0,1.04-2.72,10.93-2.72,12.49-2.72,9.89-9.99,20.81-14.53,30.18,0,0-5.45,5.72-5.45,6.76,0,1.56-1.82,2.6-1.82,2.6-9.99,5.72-21.79,14.05-33.59,16.65-9.99,2.6-26.33,4.16-38.13,4.16-7.26,0-41.76,1.56-48.12,1.56l-2.72,1.04v147.76s-4.54,1.04-4.54,2.6c-2.72,1.56-5.45,4.16-9.99,4.16-16.34,1.56-28.14,1.56-45.39,1.56h-16.34c-7.26-3.12-5.45-10.93-5.45-15.09ZM122.56,166.49c0,5.2,9.99,6.76,17.25,6.76,27.24,0,45.39-5.72,50.84-20.81,1.82-11.45,1.82-27.57,1.82-38.5,0-16.65,0-27.57-1.82-45.78-2.72-13.53-26.33-18.73-48.12-18.73-5.45,0-14.53-1.56-17.25,4.16,0,16.13-2.72,94.69-2.72,111.34v1.56ZM143.44,78.04v-18.21c14.53.52,27.24,3.12,29.05,8.84,1.82,18.21,1.82,28.61,1.82,45.26,0,10.41,0,26.01-1.82,37.46v-1.04c-2.72,6.76-9.99,10.41-19.97,11.97.91-9.89.91-20.29.91-28.09,0-16.65,0-27.57-1.82-45.78-.91-4.16-3.63-7.8-8.17-10.41ZM143.44,233.08v-8.32c19.97,0,35.41,0,48.12-1.56-5.45,2.6-10.89,4.68-16.34,5.72-8.17,2.08-20.88,3.64-31.78,4.16Z"/><path class="cls-1" d="M332.27,375.64l14.53,8.32h49.03v7.8l-5.45,2.6h-72.63l-4.54-2.6-2.72-15.61v-61.39c0-95.21,2.72-185.74,2.72-280.95,0-1.56,4.54-5.72,7.26-5.72l10.89.52c0,42.14-.91,83.76-1.82,124.87-.91,46.3-.91,93.13-.91,140.47v62.43l3.63,19.25ZM346.8,355.35v-61.39c0-95.21,2.72-185.74,2.72-280.95,0-1.56,4.54-5.72,7.26-5.72l72.63,1.56c4.54,0,7.26,2.6,9.99,5.2v130.59c0,45.78-5.45,92.09-5.45,138.39,0,26.53-1.82,87.93-1.82,87.93l-5.45,2.6h-72.63l-4.54-2.6-2.72-15.61Z"/><path class="cls-1" d="M561.06,372.52l7.26,2.6c24.51,6.24,47.21,8.32,71.72,8.32,17.25,0,34.5-1.04,49.93-3.12-21.79,10.93-52.66,13.53-86.25,13.53-21.79,0-41.76-1.56-63.55-7.28l-7.26-2.6c-29.05-15.61-39.04-29.66-44.49-52.03,0-3.12-1.82-11.45-1.82-11.45V108.22c0-21.33,9.08-42.66,29.05-61.39-7.26,13.01-10.89,27.05-10.89,40.58v213.31s1.82,8.32,1.82,11.97c6.36,25.49,17.25,41.1,49.93,58.27l4.54,1.56ZM524.74,311.12c0-3.12-1.82-11.45-1.82-11.45V87.41c0-23.93,11.8-47.87,36.32-67.64l2.72-1.56c29.05-14.05,39.04-18.21,80.8-18.21,19.97,0,39.04,1.56,56.29,8.32,5.45,3.12,24.51,13.01,27.24,15.61,2.72,1.56,16.34,14.05,18.16,17.17,9.08,15.09,6.36,44.22,7.26,65.03-4.54,2.6-4.54,4.16-4.54,6.76,0,4.68,2.72,7.28,2.72,9.88,0,7.28-17.25,5.72-24.51,5.72h-41.76l-9.08-5.2v-48.91c0-12.49-1.82-28.09-31.78-28.09-39.04,0-36.32,22.89-36.32,39.54v11.45c0,30.7,1.82,176.89,1.82,208.11,2.72,14.05,12.71,24.97,39.95,24.97,11.8,0,26.33-4.16,33.59-9.36,2.72-3.12,9.99-9.89,9.99-9.89v-70.76l2.72-1.04h34.5c9.99,0,34.5,1.04,34.5,1.04l4.54,1.56v52.03c0,18.21-7.26,31.22-19.97,47.87-19.07,26.53-60.83,31.22-108.04,31.22-21.79,0-41.76-1.56-63.55-7.28l-7.26-2.6c-29.05-15.61-39.04-29.66-44.49-52.03ZM625.52,70.24c.91-7.28,5.45-13.53,17.25-13.53,12.71,0,13.62,9.89,13.62,17.69v48.91c0,10.93,8.17,15.61,27.24,15.61h28.14c.91,2.08,1.82,3.64,1.82,4.68,0,7.28-17.25,5.72-24.51,5.72h-41.76c-6.36,0-9.08-1.56-9.08-5.2v-48.91c0-8.84-.91-19.77-12.71-24.97ZM658.2,260.14h15.43v47.87s-5.45,5.2-8.17,8.32c-2.72,1.56-6.36,2.08-9.99,3.12v-58.27l2.72-1.04Z"/><path class="cls-1" d="M873.36,26.01h5.45c-9.08,45.78-19.97,89.49-29.96,133.19-10.89,48.91-24.51,106.14-34.5,157.12l-3.63,14.57c-2.72,11.45-6.35,20.81-6.35,37.98,10.89,13.01,20.88,10.41,29.96,10.41h26.33c-2.72,5.2-7.26,8.84-14.53,8.84-14.53,1.56-29.96,1.56-45.39,1.56-4.54,0-10.89,1.04-14.53-2.6,0-16.13,6.36-32.78,9.99-48.91,19.07-101.97,45.39-194.58,65.37-296.04,0-6.76,4.54-16.13,11.8-16.13ZM1014.99,8.32c20.88,81.68,33.59,152.96,52.66,234.64,1.82,5.72,11.8,58.79,14.53,64.51,2.72,17.17,5.45,32.78,9.99,49.95,0,5.2,4.54,8.32,2.72,8.84,0,4.16-69,4.16-84.43,4.16,0,0-8.17-8.84-8.17-20.29-1.82-11.97-1.82-44.22-17.25-44.22-26.33,0-67.18-1.56-72.63-1.56-19.07,14.57-.91,62.95-29.96,62.95-14.53,1.56-29.96,1.56-45.39,1.56-4.54,0-10.89,1.04-14.53-2.6,0-16.13,6.36-32.78,9.99-48.91,19.07-101.97,45.39-194.58,65.37-296.04,0-6.76,4.54-16.13,11.8-16.13h100.77l4.54,3.12ZM975.04,264.3c4.54,0,7.26-4.16,7.26-5.72,0-17.17-9.99-35.9-9.99-49.95-3.63-23.41-5.45-83.24-22.7-87.93l-4.54,3.12c-8.17,35.9-15.43,72.84-22.7,109.26-2.72,8.32-4.54,15.61-4.54,23.93-2.72,1.56,3.63,4.16,4.54,4.16l52.66,3.12ZM920.57,326.73c0-4.68.91-8.32,2.72-11.45h1.82c14.53.52,40.85,1.04,59.01,1.04-4.54,1.56-2.72,16.65-.91,26.53,0,3.12.91,5.2.91,7.28,0,14.05,15.43,30.7,15.43,30.7,9.08,0,32.68,0,56.29-1.56,0,4.68,4.54,7.28,2.72,7.8,0,4.16-69,4.16-84.43,4.16,0,0-8.17-8.84-8.17-20.29-1.82-11.97-1.82-44.22-17.25-44.22h-28.14ZM943.27,214.87l6.36-34.86,1.82,10.41,1.82,18.21c0,8.32,1.82,16.13,4.54,24.45v-.52c1.82,6.76,3.63,14.05,4.54,20.81l-12.71-.52c-1.82-8.32-4.54-16.65-4.54-23.41-.91-4.16-1.82-8.84-1.82-14.57ZM1012.27,89.49c0-1.04-1.82-1.04-4.54-1.04-5.45,0-7.26,1.04-7.26,2.6,0,3.12,0,4.16,4.54,4.16,5.45,0,7.26-2.6,7.26-5.72Z"/><path class="cls-1" d="M1147.53,365.23l5.45,7.28,10.89,6.24h49.93c0,4.68-9.99,10.41-17.25,10.41h-61.74l-2.72-1.56-2.72-4.16v-21.85c5.45-107.7,5.45-217.47,8.17-325.17,0-3.12,1.82-11.45,9.99-11.45h8.17c-.91,33.3-1.82,66.6-1.82,99.37-.91,72.32-2.72,144.64-6.36,216.43v24.45ZM1165.69,340.78c5.45-107.7,5.45-217.47,8.17-325.17,0-3.12,1.82-11.45,9.99-11.45,27.24,0,46.3,1.04,73.54,1.04,2.72,0,15.43,28.62,17.25,31.74l22.7,53.59c17.25,40.06,37.22,81.68,57.2,121.22,2.72,2.6,7.26,14.05,7.26,16.65,0,1.56,2.72,7.28,2.72,8.84,0,2.6,2.72,5.72,7.26,5.72,2.72,0,5.45,0,5.45-1.56v-38.5c0-5.72,2.72-56.71,2.72-62.43V9.89l4.54-3.12h69c7.26,0,9.99,3.12,12.71,5.72v13.01c0,31.22-2.72,60.87-2.72,92.09-2.72,75.44-7.26,250.77-7.26,250.77l-4.54,2.6h-104.41s-5.45-2.6-7.26-4.16c-2.72-1.56-5.45-5.72-5.45-7.28-12.71-30.18-24.51-59.31-39.95-87.93l-1.82-3.12c-5.45-5.72-28.14-67.12-35.41-67.12h-2.72l-1.82,1.56c-2.72,51.51-2.72,104.05-2.72,155.04,0,4.68-9.99,10.41-17.25,10.41h-61.74l-2.72-1.56-2.72-4.16v-21.85ZM1267.37,310.6c0-17.17,0-34.34.91-52.03,3.63,7.28,6.36,13.53,8.17,14.57,13.62,25.49,25.42,52.55,36.32,79.08l-.91-1.04c0,1.56,3.63,7.28,4.54,8.84.91,3.64,3.63,8.84,8.17,12.49,1.82,1.56,16.34,7.8,16.34,7.8l78.99.52v8.32l-4.54,2.6h-104.41s-5.45-2.6-7.26-4.16c-2.72-1.56-5.45-5.72-5.45-7.28-9.99-23.41-19.97-46.82-30.87-69.72ZM1348.17,27.57h13.62v112.9c0,3.12-.91,16.65-1.82,30.7-.91,4.68-.91,8.84-.91,13.01-5.45-10.41-10.89-20.81-15.43-31.22V30.7l4.54-3.12Z"/><path class="cls-1" d="M1536.09,363.15c-7.26,17.69,26.33,15.09,55.38,15.61h9.08v4.68c-2.72,4.16-9.08,5.2-13.62,7.8-7.26-3.64-71.72,0-69-6.24v-100.41c0-34.86,4.54-194.06,6.35-228.4,0-5.2,0-11.45,7.26-17.17v-10.41l10.89-1.04v7.28c-1.82,34.34-6.36,194.06-6.36,228.92v99.37ZM1554.25,263.78c0-34.86,4.54-194.06,6.35-228.4,0-5.2,0-11.45,7.26-17.17,0,0,9.08-4.16,9.08-5.2v-5.2l2.72-1.04h54.47l4.54,2.6v57.75c0,14.57,2.72,79.08,2.72,93.65l4.54,2.6c9.99,1.04,25.42,1.04,34.5,1.04h19.07c1.82,0,6.35-1.04,6.35-3.64l2.72-17.17,6.35-134.23c0-1.56,7.26-2.6,9.08-2.6h5.45c18.16,0,63.55,1.04,63.55,1.04l4.54,2.6v100.41c0,28.61-1.82,167.53-1.82,196.14,0,5.2-2.72,29.14-2.72,34.86v8.84c0,5.2-1.82,18.73-1.82,18.73l-2.72,1.04h-76.26c-1.82,0-3.63-3.64-3.63-3.64,0-4.16-2.72-21.33-2.72-24.97v-3.12c0-31.74,2.72-61.91,2.72-93.65v-28.61c0-1.56-4.54-5.72-7.26-5.72h-53.56c-4.54,0-6.35,3.12-6.35,4.16,0,15.61-2.72,91.05-2.72,107.18,0,6.24-1.82,33.82-1.82,40.58-2.72,4.16-9.08,5.2-13.62,7.8-7.26-3.64-71.72,0-69-6.24v-100.41ZM1593.29,32.26c0-1.04-1.82-1.04-4.54-1.04-5.45,0-7.26,1.04-7.26,2.6,0,3.12,0,4.16,4.54,4.16,5.45,0,7.26-2.6,7.26-5.72ZM1659.57,231.52v-10.41h30.87v23.93c0,16.13-.91,30.7-1.82,46.3-.91,15.61-.91,31.74-.91,47.35v3.12c0,1.56,0,7.8.91,13.01.91,5.2,1.82,10.93,1.82,13.01,0,0,6.36,13.01,21.79,13.01h43.58c0,4.68-.91,9.37-.91,9.37l-2.72,1.04h-76.26c-1.82,0-3.63-3.64-3.63-3.64,0-4.16-2.72-21.33-2.72-24.97v-3.12c0-31.74,2.72-61.91,2.72-93.65v-28.61c0-1.56-4.54-5.72-7.26-5.72h-5.45ZM1693.16,27.57h2.72l-5.45,116.02v-1.04l-1.82,11.45h-16.34l6.36-123.83c0-1.56,7.26-2.6,9.08-2.6h5.45Z"/><path class="cls-1" d="M1919.22,26.01h5.45c-9.08,45.78-19.97,89.49-29.96,133.19-10.89,48.91-24.51,106.14-34.5,157.12l-3.63,14.57c-2.72,11.45-6.35,20.81-6.35,37.98,10.89,13.01,20.88,10.41,29.96,10.41h26.33c-2.72,5.2-7.26,8.84-14.53,8.84-14.53,1.56-29.96,1.56-45.39,1.56-4.54,0-10.89,1.04-14.53-2.6,0-16.13,6.36-32.78,9.99-48.91,19.07-101.97,45.39-194.58,65.37-296.04,0-6.76,4.54-16.13,11.8-16.13ZM2060.85,8.32c20.88,81.68,33.59,152.96,52.66,234.64,1.82,5.72,11.8,58.79,14.53,64.51,2.72,17.17,5.45,32.78,9.99,49.95,0,5.2,4.54,8.32,2.72,8.84,0,4.16-69,4.16-84.43,4.16,0,0-8.17-8.84-8.17-20.29-1.82-11.97-1.82-44.22-17.25-44.22-26.33,0-67.18-1.56-72.63-1.56-19.07,14.57-.91,62.95-29.96,62.95-14.53,1.56-29.96,1.56-45.39,1.56-4.54,0-10.89,1.04-14.53-2.6,0-16.13,6.36-32.78,9.99-48.91,19.07-101.97,45.39-194.58,65.37-296.04,0-6.76,4.54-16.13,11.8-16.13h100.77l4.54,3.12ZM2020.9,264.3c4.54,0,7.26-4.16,7.26-5.72,0-17.17-9.99-35.9-9.99-49.95-3.63-23.41-5.45-83.24-22.7-87.93l-4.54,3.12c-8.17,35.9-15.43,72.84-22.7,109.26-2.72,8.32-4.54,15.61-4.54,23.93-2.72,1.56,3.63,4.16,4.54,4.16l52.66,3.12ZM1966.43,326.73c0-4.68.91-8.32,2.72-11.45h1.82c14.53.52,40.85,1.04,59.01,1.04-4.54,1.56-2.72,16.65-.91,26.53,0,3.12.91,5.2.91,7.28,0,14.05,15.43,30.7,15.43,30.7,9.08,0,32.68,0,56.29-1.56,0,4.68,4.54,7.28,2.72,7.8,0,4.16-69,4.16-84.43,4.16,0,0-8.17-8.84-8.17-20.29-1.82-11.97-1.82-44.22-17.25-44.22h-28.14ZM1989.12,214.87l6.36-34.86,1.82,10.41,1.82,18.21c0,8.32,1.82,16.13,4.54,24.45v-.52c1.82,6.76,3.63,14.05,4.54,20.81l-12.71-.52c-1.82-8.32-4.54-16.65-4.54-23.41-.91-4.16-1.82-8.84-1.82-14.57ZM2058.12,89.49c0-1.04-1.82-1.04-4.54-1.04-5.45,0-7.26,1.04-7.26,2.6,0,3.12,0,4.16,4.54,4.16,5.45,0,7.26-2.6,7.26-5.72Z"/><path class="cls-1" d="M2180.68,49.95c-.91.52-.91,1.04-.91,1.56s-.91,2.08-.91,4.16c-.91,1.56-.91,2.6-.91,3.12-4.54,12.49-4.54,26.53-4.54,40.06,0,58.27,80.8,105.62,139.81,142.03,21.79,13.53,28.14,30.18,28.14,49.95,0,8.84-1.82,20.81-11.8,24.97h-6.35v-4.16c0-20.29-6.36-38.5-27.24-53.59v-27.05l-20.88-1.04h-23.6c-48.12-31.22-96.23-68.16-96.23-110.3,0-13.01,0-24.97,4.54-37.98,0-1.04,1.82-7.8,1.82-8.84,3.63-7.8,9.99-15.61,19.07-22.89ZM2353.18,380.32l8.17-1.04c-12.71,6.24-29.05,9.88-47.21,11.45h-59.92c-12.71,0-28.14-4.68-41.76-7.28-43.58-10.41-48.12-36.42-52.66-61.39,0-3.64-1.82-18.21-1.82-20.81v-39.02l1.82-1.04h17.25l-.91,19.25c0,1.04.91,5.72.91,9.89.91,4.68.91,9.89.91,11.97,4.54,28.09,9.99,57.23,64.46,70.24,3.63,0,7.26,1.56,11.8,2.6,10.89,2.08,21.79,5.2,36.32,5.2h62.64ZM2290.54,369.92c-12.71,0-28.14-4.68-41.76-7.28-43.58-10.41-48.12-36.42-52.66-61.39,0-3.64-1.82-18.21-1.82-20.81v-39.02l1.82-1.04h78.99l2.72,1.04v52.03c0,2.6,1.82,14.57,1.82,17.17l10.89,8.84c7.26,5.2,24.51,6.76,36.32,6.76h4.54c26.33-4.16,28.14-22.37,28.14-35.38,0-22.37-7.26-41.62-32.68-57.23-57.2-35.38-135.27-81.16-135.27-134.75,0-13.01,0-24.97,4.54-37.98,0-1.04,1.82-7.8,1.82-8.84,9.08-18.21,30.87-35.38,59.92-43.18,17.25-3.64,32.68-5.2,50.84-5.2,19.97,0,37.22,0,54.47,4.16,2.72,0,13.62,3.64,15.43,5.2,5.45,2.6,18.16,10.41,19.97,11.45,24.51,17.17,22.7,48.39,22.7,69.2v16.65c0,1.04-1.82,4.16-1.82,5.2,0,1.56-2.72,3.12-2.72,3.12h-70.81c-2.72,0-4.54-4.16-4.54-4.16,0-15.61,0-32.26-1.82-47.87-4.54-10.93-8.17-15.61-27.24-15.61-38.13,0-34.5,17.69-34.5,35.9,0,19.77,6.35,33.82,30.87,49.95,46.3,28.09,103.5,63.99,127.1,103.53,2.72,3.64,9.99,15.61,9.99,15.61v54.63s-2.72,3.64-2.72,5.2c-13.62,28.62-42.67,50.47-92.6,54.11h-59.92ZM2295.98,76.48c0-8.32,2.72-15.09,16.34-15.09,5.45,0,6.36,1.04,9.08,6.24,1.82,15.61,1.82,31.74,1.82,47.35,0,0,6.35,14.05,22.7,14.05h39.04v2.08c0,1.04-1.82,4.16-1.82,5.2,0,1.56-2.72,3.12-2.72,3.12h-42.67l-15.43-9.88v.52c-8.17-4.68-13.62-9.36-17.25-14.57,0-9.37-.91-18.73-1.82-28.09-2.72-4.68-4.54-8.32-7.26-10.93Z"/><path class="cls-1" d="M2512.05,147.76h31.78l-2.72,4.16-17.25,5.72-36.32.52-9.99-5.72,48.12-62.95,2.72-3.64h-30.87l-6.35-3.12-2.72-18.73v-31.22l2.72-5.72h15.43v17.17l3.63,22.37,16.34,8.84h15.43l-44.49,57.75,14.53,14.57ZM2518.4,131.63l48.12-62.95-1.82-3.64h-30.87l-6.36-3.12-2.72-18.73V11.97l2.72-5.72h86.25l9.08,3.12c-.91,30.18-.91,60.35-.91,60.35l-44.49,61.39-17.25,5.72-36.32.52-5.45-5.72Z"/><path class="cls-1" d="M84.27,581.79s-1.5-10.03-2.57-15.96c-4.07-21.69-4.5-41.33-9-41.33-2.36,0-1.71,4.3-4.28,13.71-1.28,4.5-1.5,19.64-4.93,37.85-1.5,7.78-1.07,20.26-4.93,37.44-1.5,6.96-4.93,6.55-8.14,6.55-4.28,0-6.43-2.86-7.28-7.78-5.14-28.24-7.93-49.72-11.78-62.41-2.14-7.37-3.86-21.28-8.14-39.08-1.29-4.91-.64-12.69-6.43-15.55-1.07-.61-4.93-1.43-4.93-6.34,0-6.55,4.28-5.93,11.57-5.93h3c1.93,0,3.21-.41,5.14-.41,3.64,0,12,2.66,12,7.57,0,4.3-2.14,5.32-5.57,5.32-2.78,0-6.21-.21-6.21,3.68,0,0,1.93,10.84,3.43,16.98.86,3.89,5.57,20.05,10.28,49.72,1.71,10.43,4.07,17.19,6.21,17.19,4.07,0,2.14-22.1,5.78-28.65.21-.61.64-.82.64-1.43,0-.41-.43-2.46-.43-3.27,0-2.66,2.57-9.82,3-20.46.43-11.46,3.21-21.69,3.21-28.24s-5.57-6.34-7.93-7.16c-3.43-1.23-3.43-3.07-3.43-6.14,0-2.66,2.57-4.91,5.36-4.91,2.14,0,3.43,0,5.57.2,20.14,2.05,27.85-1.84,27.85,6.55,0,1.43-1.93,3.68-3.43,4.3-1.29.61-6.85,1.02-6.85,6.34,0,1.23.43,1.84.43,3.07,0,.82-.43,1.43-.43,2.25,0,1.64,1.29,4.91,1.29,7.16,0,1.23-.43,1.64-.43,2.86,0,.41,3.43,8.18,3.43,16.16,0,1.43,2.36,8.39,3.43,19.64,1.93,20.05,5.36,31.72,8.14,31.72,2.36,0,3.21-8.8,5.78-21.89,6.85-35.4,8.78-64.04,8.78-64.04,0-2.86-1.71-3.89-5.57-3.89h-1.5c-2.78,0-5.36-1.84-5.36-4.71,0-2.25,2.57-4.91,3.86-5.73,1.71-1.02,5.36-.82,8.14-.82,4.71,0,7.28,1.02,9.43,1.02,1.07,0,1.71-.41,2.78-.41,4.07,0,6.43,1.64,6.43,5.73,0,2.46-1.07,4.09-2.57,5.32-4.07,3.68-4.07,4.91-4.93,11.05-1.5,11.46-5.36,25.58-5.36,31.72,0,.41.21.61.21,1.02,0,0-1.71,4.5-1.93,10.03,0,0-4.28,18.21-8.57,44.81-2.78,17.19-4.07,26.4-10.28,26.4-8.35,0-7.93-2.66-10.5-20.67-.86-5.73-1.5-10.84-1.5-13.3v-2.86Z"/><path class="cls-1" d="M189.44,479.48c8.14,0,21.42,5.12,28.92,13.5,10.71,12.07,17.14,25.58,19.06,37.85.86,6.34,1.71,16.78,1.71,19.64,0,4.09-1.28,7.37-1.5,8.39,0,0,.64,1.84-1.5,8.59-1.29,3.68-.43,5.93-1.07,9.62-.64,3.89-6.43,18.42-11.14,24.14-11.78,14.53-30.42,19.03-32.13,19.03-6.21,0-10.92-1.43-13.92-2.25-16.07-4.3-18.21-8.8-25.06-18.42-12-16.78-15.42-25.37-15.42-50.13,0-10.64.64-18.42,2.57-22.1,2.57-4.71,2.36-7.37,2.57-8.18,1.29-4.91,4.5-6.75,6-11.66,1.71-5.73,2.78-5.52,5.14-10.03,2.14-4.09,11.57-12.28,16.92-14.53,3.21-1.43,12.42-3.48,18.85-3.48ZM188.8,492.37c-13.49,0-15.21,4.09-17.78,5.93-1.07.82-6,2.05-11.14,12.69-3.86,7.98-10.71,19.44-10.71,43.99,0,22.1,13.28,43.99,26.13,48.08,2.78.82,8.78,1.64,14.78,1.64,13.71,0,29.99-15.55,31.49-26.8.43-3.89,5.78-15.14,5.78-28.44,0-6.55-1.71-18.62-3.43-24.76-4.71-17.8-21.42-30.08-24.85-30.9,0,0-9.43-1.43-10.28-1.43Z"/><path class="cls-1" d="M304.47,479.48c8.14,0,21.42,5.12,28.92,13.5,10.71,12.07,17.14,25.58,19.06,37.85.86,6.34,1.71,16.78,1.71,19.64,0,4.09-1.28,7.37-1.5,8.39,0,0,.64,1.84-1.5,8.59-1.29,3.68-.43,5.93-1.07,9.62-.64,3.89-6.43,18.42-11.14,24.14-11.78,14.53-30.42,19.03-32.13,19.03-6.21,0-10.92-1.43-13.92-2.25-16.07-4.3-18.21-8.8-25.06-18.42-12-16.78-15.42-25.37-15.42-50.13,0-10.64.64-18.42,2.57-22.1,2.57-4.71,2.36-7.37,2.57-8.18,1.29-4.91,4.5-6.75,6-11.66,1.71-5.73,2.78-5.52,5.14-10.03,2.14-4.09,11.57-12.28,16.92-14.53,3.21-1.43,12.42-3.48,18.85-3.48ZM303.83,492.37c-13.49,0-15.21,4.09-17.78,5.93-1.07.82-6,2.05-11.14,12.69-3.86,7.98-10.71,19.44-10.71,43.99,0,22.1,13.28,43.99,26.13,48.08,2.78.82,8.78,1.64,14.78,1.64,13.71,0,29.99-15.55,31.49-26.8.43-3.89,5.78-15.14,5.78-28.44,0-6.55-1.71-18.62-3.43-24.76-4.71-17.8-21.42-30.08-24.85-30.9,0,0-9.42-1.43-10.28-1.43Z"/><path class="cls-1" d="M383.73,497.9c-7.5,0-12.42-3.48-12.42-7.98s2.14-7.16,6.43-7.16c9,0,15.85,1.43,19.71,1.43,3,0,4.71-.41,7.71-.61,0,0,10.5-.2,27.85-.2l17.56,2.46c21.21,3.07,36.84,25.78,36.84,55.66,0,12.69.43,24.14-4.28,37.44-1.93,5.12-1.93,14.73-16.28,27.21-17.57,15.35-30.42,7.78-59.55,10.44-7.5.61-12.21,3.27-17.57,3.27-10.5,0-16.92-3.48-16.92-10.64,0-.82,2.14-6.34,5.57-6.34,1.71,0,10.71,2.25,18.42,2.25,6.43,0,7.28-2.66,7.28-6.75,0-5.12-1.71-21.48-1.71-51.56,0-10.43,1.71-17.6,1.71-20.46,0-4.71-.64-10.03-.64-14.53,0-.61.64-4.3.64-10.03,0-2.86-4.07-5.52-9.85-5.52-1.07,0-5.57,1.64-10.5,1.64ZM415.22,597.55c0,5.12,4.93,7.37,9.64,7.37s9-.82,10.71-1.02c3.86-.41,9.85.41,16.28-2.46,5.36-2.46,12.85-9,16.07-14.53,3.86-6.55,7.71-23.33,7.71-46.45,0-16.78-8.57-29.87-13.28-33.97-4.07-3.48-16.92-9-27.63-9.62-7.71-.41-14.78-1.02-14.78-1.02-1.28,0-5.14,1.02-5.14,4.91,0,1.23,1.07,11.87,1.07,30.49,0,7.78-1.71,17.19-1.71,27.83,0,7.98,1.28,19.44,1.28,34.58,0,1.64-.21,2.25-.21,3.89Z"/><path class="cls-1" d="M591.94,520c0-22.51,0-23.74-7.5-23.74-1.5,0-2.14.21-3.64.21-2.57,0-3.86-.41-6.43-.41-3.64,0-5.78.82-9.43.82-5.78,0-6.43-2.05-6.43-6.96,0-2.46,2.14-5.52,4.5-6.75,2.57-1.43,5.57-1.02,7.07-1.02.21,0,13.5,2.46,28.7,2.46,5.78,0,18.64-1.23,35.77-1.23,3,0,12,.2,22.92,1.23,4.71.41,9.21-.2,10.5.2,1.5.61,3.64,3.48,3.64,5.12,0,5.32-1.29,10.44-1.29,12.48,0,9.62,1.5,20.46,1.5,30.28,0,4.71-2.79,9.41-6.43,9.41-4.71,0-6.21-1.84-6.21-5.73,0-3.68,1.93-9.41,1.93-15.76,0-12.89-3.43-17.19-9.43-22.1-6-4.91-8.57-3.27-12.21-3.27-10.07,0-17.56-.41-21.21-.41-8.35,0-14.57,1.43-15.85,3.07-.86,1.23-.86,2.25-.86,3.68,0,0,.64,2.46.64,5.32,0,3.68-.21,5.52-.21,9.21,0,8.18.64,14.73.64,18.42,0,2.86-.43,6.34-.43,7.37,0,4.71,3.21,4.3,12,4.3,10.28,0,15.42-7.78,15.42-20.26,0-1.43-.43-2.25-.43-3.68,0-2.25,1.5-4.71,3.21-4.71,4.93,0,6.85,3.07,6.85,14.94,0,6.75-.86,14.94-.86,23.74s1.93,18.82,1.93,27.62c0,4.09-2.57,7.16-6,7.16-3.64,0-5.78-2.86-5.78-6.96,0-2.25,1.07-6.14,1.07-9.41,0-8.8-4.28-15.14-11.78-17.6-3.64-1.23-5.78-.82-9.64-.82-4.71,0-6,2.86-6,9.21,0,4.09.43,14.94.43,32.53,0,5.73.21,7.98,8.57,7.98,4.71,0,10.28-1.64,15.21-1.64,5.36,0,10.28,4.09,10.28,6.96,0,8.39-8.14,5.52-10.71,5.52,0,0-3,.2-6.85.2-2.57,0-4.07.41-6.64.41-5.78,0-12.42-.61-18.42-.61-12.42,0-20.99,2.05-26.35,2.05-5.78,0-9-4.5-9-6.34,0-4.71.43-8.39,4.5-8.39,5.36,0,13.07,2.05,22.06,2.05,6.85,0,7.28-1.23,7.28-5.12v-14.53c0-5.52-1.28-9.82-1.28-11.66,0-1.43.21-2.05.21-3.48,0-1.23-.43-1.84-.43-3.07,0,0,.86-2.25.86-5.52,0-.61-.43-.82-.64-1.43-.21-1.43.43-2.25.43-3.68,0-3.68.43-6.75.43-7.37,0-6.96-1.07-10.84-1.07-17.8,0-4.91.86-7.57.86-12.48Z"/><path class="cls-1" d="M726.89,501.99c0-4.91-3-5.52-5.78-5.52,0,0-6,.61-17.14.61-6.43,0-12-1.84-13.71-4.71-.86-1.43-.64-2.46-.64-4.09,0-4.91,5.36-6.55,14.35-6.55,2.36,0,3.21,1.43,5.57,1.43,4.93,0,10.07-.61,13.71-.61,4.93,0,11.78.41,19.49.41,5.57,0,10.92-.2,14.35-.2,11.57,0,15.21,2.46,15.21,7.57,0,5.93-4.5,6.75-12.85,6.75-5.78,0-11.14-2.66-14.78-2.66-4.71,0-7.07,3.48-7.07,9.41,0,4.91,1.5,16.37,1.5,32.12,0,8.18-1.07,14.73-1.07,18.62s1.29,8.39,1.29,13.3c0,3.89-.64,9.62-.64,15.76,0,1.84.43,3.07.43,4.91,0,2.25-.64,3.48-.64,5.73,0,4.91,2.57,10.23,5.78,10.23,4.28,0,11.14-1.43,18.85-1.43,7.07,0,11.78,2.46,11.78,6.75,0,7.78-6.85,7.57-14.35,7.57-5.78,0-11.78,1.43-17.14,1.43-10.5,0-15.42-1.84-15.42-1.84-9.43,0-19.28,1.84-29.35,1.84-3.86,0-8.14-3.89-8.14-7.37,0-6.14,4.28-8.8,11.57-8.8,4.07,0,9.85,1.84,16.28,1.84,2.57,0,6-1.84,7.28-3.89,1.29-2.25,1.29-8.8,1.29-18.42,0-4.5-1.07-6.75-1.07-11.25,0-2.86.43-4.5.43-7.37,0-4.3-.86-6.75-.86-11.05,0-3.27.64-5.12.64-8.39,0-5.32-.43-14.32-.43-25.78,0-1.02.43-1.64.43-2.66,0-.61-.21-.82-.21-1.43,0-4.3,1.07-8.59,1.07-12.28Z"/><path class="cls-1" d="M820.72,563.99c0-12.69-1.07-23.94-1.07-32.94,0-4.5.21-6.96.21-11.46,0-3.27-.21-4.91-.21-8.18,0-2.66.43-3.89.43-6.55,0-9.21-7.5-7.78-10.71-8.18-2.14-.41-3.21-1.23-5.36-1.43-2.57-.41-4.93-.41-4.93-3.48,0-6.34,3-9,4.28-9,6.85,0,19.49,1.64,33.42,0,3-.41,7.07-.61,10.07-.61,2.57,0,14.14.82,23.13,2.05,18.42,2.46,31.49,15.14,31.49,34.58,0,2.66-.64,3.89-1.07,6.55-.86,6.14-1.07,11.87-8.57,18.01-5.14,4.09-9.85,6.75-9.85,8.59,0,4.09,5.57,8.8,8.35,16.37,7.71,20.46,2.14,30.08,12.21,33.35,4.5,1.43,12.64,2.05,12.64,11.66,0,5.93-3.64,5.52-6.21,5.52-1.93,0-6-1.43-10.07-1.64-7.5-.41-15.85,1.43-15.85-4.91,0-1.23.21-2.05.21-3.27,0-1.02-.21-1.43-.21-2.46,0-5.12.64-9.82.64-12.89,0-8.39-8.14-29.87-14.35-34.79-3-2.46-9.64-4.3-16.71-4.3-5.78,0-8.78.41-14.57.41-1.71,0-2.57-.2-4.28-.2-1.93,0-3.86,2.46-3.86,4.5,0,5.32,1.29,11.46,1.29,15.96s-.86,10.23-.86,15.55c0,13.71,2.57,13.3,14.57,13.71,6.85.2,10.28,3.07,10.28,6.55,0,4.71-.21,7.16-15.21,7.16-7.5,0-12.21-1.23-13.28-1.23-2.36,0-8.35,1.64-17.35,1.64-3.64,0-11.14-3.68-11.14-9.21,0-3.68,2.57-5.93,7.07-5.93,2.36,0,3.86.82,6.21.82,7.07,0,10.07.61,10.07-22.1,0-3.07-.64-4.91-.86-7.98-.21-3.89,0-6.34,0-10.23ZM846.42,495.65c-19.28,0-15.85,2.05-15.42,27.21.21,18.21-3.64,21.28,7.93,21.28,2.57,0,6.21-1.64,9.21-1.64,7.28,0,13.07,1.43,15.64,1.43,8.78,0,17.14-3.89,22.71-11.66,4.28-5.93,3.86-9.62,3.86-13.91,0-5.12-3.86-12.28-9.43-15.96-4.93-3.27-18.42-6.75-34.49-6.75Z"/><path class="cls-1" d="M934.67,498.1c-1.93,0-4.93-1.43-4.93-4.3,0-3.89.64-9,.64-9,1.28-1.23,4.5-2.25,8.35-2.25,4.28,0,8.57,2.05,11.14,2.05,3.64,0,9.21-1.02,15.21-1.02,7.28,0,25.28,1.23,53.77,1.23h6c12,0,16.49,1.02,16.49,6.96,0,1.23-.21,4.5-.21,7.16,0,10.23-.21,18.01-.21,22.3,0,5.32.64,9.82.64,11.66,0,3.89-2.14,7.16-4.71,7.16-4.07,0-6.85-2.46-6.85-6.34,0-2.25.86-5.32.86-7.37,0-2.66-.64-3.89-.64-6.55,0-1.43.21-2.25.21-3.68,0-6.14-1.29-5.93-3-8.18-.21-.21-.86-3.48-5.57-6.96-2.79-2.05-6.43-4.3-8.78-4.3-2.14,0-6,.61-9.64.61-6.21,0-13.28-1.02-19.71-1.02-16.49,0-10.07,4.71-12,26.4-.43,4.09-.86,6.14-.86,10.23,0,11.46,4.28,10.44,8.14,10.44,7.71,0,16.28-3.27,19.71-7.16,3.21-3.89,4.07-10.23,4.07-18.21,0-3.27.86-5.32,3.86-5.32,1.29,0,5.57,3.27,5.57,8.59,0,0-1.5,16.37-1.5,45.63,0,4.71.64,10.44.64,15.76,0,2.86-1.29,5.12-3.86,5.12-2.36,0-6.21-3.27-6.21-5.73,0-5.52.64-9.41.64-10.44,0-3.89-2.57-7.16-4.93-10.23-4.5-6.34-6.43-7.98-16.07-7.98s-9.43-.61-9.43,26.8c0,24.96-1.28,26.8,7.28,26.8,0,0,8.35-.82,23.99-.82,3.21,0,4.71.61,7.93.61,5.14,0,11.14-1.84,13.92-3.89,4.07-2.86,7.07-10.23,7.07-15.14,0-9-.64-13.91-.64-13.91,0-4.09,1.5-9,4.28-9,3.43,0,7.5,3.07,7.5,9.41,0,2.05-.64,8.39-.64,19.03,0,0,.21,5.73.64,8.59.43,3.68,1.5,5.73,1.5,9.41,0,3.27-3.21,9.21-9.64,9.21-9.85,0-18.64-2.25-23.78-2.25-3.21,0-8.78.82-15.21.82-.86,0-1.07-.2-1.93-.2-4.28-.61-6.85.41-11.14.41-10.5,0-19.28-.82-26.13-.82-8.14,0-16.07,1.23-22.49,1.23-3.21,0-4.93-1.84-4.93-5.12,0-5.93,1.07-9.82,4.07-9.82,3.64,0,6.64,1.23,6.64,1.23,1.07,0,1.71-.2,2.78-.2,1.71-.2,3,.2,4.71.2,13.28,0,12.85-1.02,12.85-7.57,0-3.27-.43-5.12-.43-8.39,0-8.39,1.07-19.03,1.07-31.31,0-7.98-.64-15.14-.64-20.26,0-21.08,1.5-34.17,1.5-37.44,0-3.48-5.36-4.91-8.57-4.91-3.86,0-9.43,2.05-18.42,2.05Z"/><path class="cls-1" d="M1073.27,497.9c-7.5,0-12.42-3.48-12.42-7.98s2.14-7.16,6.43-7.16c9,0,15.85,1.43,19.71,1.43,3,0,4.71-.41,7.71-.61,0,0,10.5-.2,27.85-.2l17.56,2.46c21.21,3.07,36.84,25.78,36.84,55.66,0,12.69.43,24.14-4.28,37.44-1.93,5.12-1.93,14.73-16.28,27.21-17.57,15.35-30.42,7.78-59.55,10.44-7.5.61-12.21,3.27-17.57,3.27-10.5,0-16.92-3.48-16.92-10.64,0-.82,2.14-6.34,5.57-6.34,1.71,0,10.71,2.25,18.42,2.25,6.43,0,7.28-2.66,7.28-6.75,0-5.12-1.71-21.48-1.71-51.56,0-10.43,1.71-17.6,1.71-20.46,0-4.71-.64-10.03-.64-14.53,0-.61.64-4.3.64-10.03,0-2.86-4.07-5.52-9.85-5.52-1.07,0-5.57,1.64-10.5,1.64ZM1104.76,597.55c0,5.12,4.93,7.37,9.64,7.37s9-.82,10.71-1.02c3.86-.41,9.85.41,16.28-2.46,5.36-2.46,12.85-9,16.07-14.53,3.86-6.55,7.71-23.33,7.71-46.45,0-16.78-8.57-29.87-13.28-33.97-4.07-3.48-16.92-9-27.63-9.62-7.71-.41-14.78-1.02-14.78-1.02-1.28,0-5.14,1.02-5.14,4.91,0,1.23,1.07,11.87,1.07,30.49,0,7.78-1.71,17.19-1.71,27.83,0,7.98,1.28,19.44,1.28,34.58,0,1.64-.21,2.25-.21,3.89Z"/><path class="cls-1" d="M1318.54,493.6c4.07,0-.86-14.53,8.14-14.53,6,0,5.57,3.89,5.57,14.12,0,4.71-.43,9-.64,12.07-.86,15.14.64,24.14-4.5,24.14-4.71,0-6-3.68-7.28-9-1.5-5.93-3-11.46-4.28-13.3-3.43-5.52-15.85-14.32-31.49-14.32-6.85,0-25.92,7.98-25.92,21.89,0,11.25,1.5,12.48,4.93,16.57,2.78,3.27,3.64,4.09,14.99,7.78,6.21,2.05,12.42,1.84,17.14,2.25,19.28,1.84,32.34,8.59,38.77,20.05,3.43,6.14,4.71,14.94,4.71,14.94,0,27.83-15.85,44.61-46.7,44.61-8.35,0-12.42-2.66-14.99-3.68-11.78-4.3-13.92-7.16-13.92-7.16-.86-.61-1.5-.82-2.57-.82-1.71,0-2.57,2.66-3,4.91-.86,3.89-3,6.75-6.21,6.75-3,0-6.85-3.48-6.85-6.14,0-1.02,1.93-9,1.93-19.85,0-3.48-.64-5.32-.64-8.8,0,0,.64-3.07.64-7.57,0-2.05-.86-5.32-.86-7.78,0-4.09,3-8.59,5.57-8.59,5.78,0,6,3.07,6.64,7.98.43,3.89,1.28,6.34,1.5,10.23,0,1.64-.43,4.71,1.93,9,6.64,11.66,17.78,17.19,33.63,17.19,8.14,0,15.42-1.64,18.85-3.68,4.71-2.86,12-11.87,12-22.1,0-17.39-7.28-19.85-15.21-23.74-3.64-1.84-4.71-2.66-13.49-3.27-24.21-1.43-37.7-5.52-45.2-17.8-5.14-8.39-5.78-9.21-5.78-21.48,0-3.07,2.78-12.28,6.21-18.21,6-10.23,20.99-16.98,30.85-16.98,17.99,0,27.2,10.23,32.99,13.5.86.41,1.5.82,2.57.82Z"/><path class="cls-1" d="M1396.08,501.17v-2.05c0-2.66-1.28-4.3-4.07-4.3-9,0-14.99.82-21.21,7.78-2.14,2.46-5.78,11.46-5.78,15.76,0,7.16,1.07,12.28,1.07,13.5,0,4.3-4.93,7.57-6.43,7.57-2.36,0-6.43-3.68-6.43-11.66,0-18.82,1.5-39.49,1.5-39.49,1.71-5.73,8.57-3.68,21.21-4.09,4.5-.2,14.57-.82,30.2-.82,10.28,0,17.57,1.02,22.28,1.02,1.93,0,8.14-.61,15.21-.61,1.5,0,4.07,1.84,4.93,3.48,1.71,3.27.64,7.98.64,12.89,0,7.78.86,17.8.86,27.83,0,7.16-2.57,11.87-6.43,11.87-3.64,0-6-4.91-6-7.98,0-4.5.21-9.41.21-13.1,0-4.91-1.71-11.25-3.64-13.91-2.57-3.27-13.92-9.21-18.64-9.21-6.85,0-8.35,2.05-8.35,7.16,0,4.71.43,8.39.43,9.21,0,3.27-.64,14.73-.64,32.53,0,3.27,1.29,6.14,1.29,9.41,0,0-2.36,14.94-2.36,41.95,0,6.75.86,9,15.42,9,3.21,0,6.64-.82,7.71-.82,3.43,0,6.64,3.68,6.64,6.55,0,5.93-3.21,6.96-11.57,8.39-2.36.41-3.43.61-5.78.61-4.71,0-10.07-1.23-14.35-1.43-7.07-.21-10.5-1.02-14.57-1.02-1.5,0-10.5,1.64-18.21,1.64-3.21,0-6.21-3.27-6.21-6.75,0-6.55,4.5-8.8,12.42-8.8,4.07,0,8.78,1.23,12,1.23,1.28,0,3.64-2.25,4.28-3.68,1.07-2.46.43-7.16.43-12.28s.64-12.07.64-20.26c0-6.55-.43-12.89-.43-17.39,0-12.69,2.14-25.17,2.14-31.1,0-3.27-.43-10.03-.43-18.62Z"/><path class="cls-1" d="M1473.2,498.1c-1.93,0-4.93-1.43-4.93-4.3,0-3.89.64-9,.64-9,1.29-1.23,4.5-2.25,8.35-2.25,4.28,0,8.57,2.05,11.14,2.05,3.64,0,9.21-1.02,15.21-1.02,7.28,0,25.28,1.23,53.77,1.23h6c12,0,16.49,1.02,16.49,6.96,0,1.23-.21,4.5-.21,7.16,0,10.23-.21,18.01-.21,22.3,0,5.32.64,9.82.64,11.66,0,3.89-2.14,7.16-4.71,7.16-4.07,0-6.85-2.46-6.85-6.34,0-2.25.86-5.32.86-7.37,0-2.66-.64-3.89-.64-6.55,0-1.43.21-2.25.21-3.68,0-6.14-1.29-5.93-3-8.18-.21-.21-.86-3.48-5.57-6.96-2.78-2.05-6.43-4.3-8.78-4.3-2.14,0-6,.61-9.64.61-6.21,0-13.28-1.02-19.71-1.02-16.49,0-10.07,4.71-12,26.4-.43,4.09-.86,6.14-.86,10.23,0,11.46,4.28,10.44,8.14,10.44,7.71,0,16.28-3.27,19.71-7.16,3.21-3.89,4.07-10.23,4.07-18.21,0-3.27.86-5.32,3.86-5.32,1.28,0,5.57,3.27,5.57,8.59,0,0-1.5,16.37-1.5,45.63,0,4.71.64,10.44.64,15.76,0,2.86-1.28,5.12-3.86,5.12-2.36,0-6.21-3.27-6.21-5.73,0-5.52.64-9.41.64-10.44,0-3.89-2.57-7.16-4.93-10.23-4.5-6.34-6.43-7.98-16.07-7.98s-9.43-.61-9.43,26.8c0,24.96-1.29,26.8,7.28,26.8,0,0,8.35-.82,23.99-.82,3.21,0,4.71.61,7.93.61,5.14,0,11.14-1.84,13.92-3.89,4.07-2.86,7.07-10.23,7.07-15.14,0-9-.64-13.91-.64-13.91,0-4.09,1.5-9,4.28-9,3.43,0,7.5,3.07,7.5,9.41,0,2.05-.64,8.39-.64,19.03,0,0,.21,5.73.64,8.59.43,3.68,1.5,5.73,1.5,9.41,0,3.27-3.21,9.21-9.64,9.21-9.85,0-18.64-2.25-23.78-2.25-3.21,0-8.78.82-15.21.82-.86,0-1.07-.2-1.93-.2-4.28-.61-6.85.41-11.14.41-10.5,0-19.28-.82-26.13-.82-8.14,0-16.07,1.23-22.49,1.23-3.21,0-4.93-1.84-4.93-5.12,0-5.93,1.07-9.82,4.07-9.82,3.64,0,6.64,1.23,6.64,1.23,1.07,0,1.71-.2,2.78-.2,1.71-.2,3,.2,4.71.2,13.28,0,12.85-1.02,12.85-7.57,0-3.27-.43-5.12-.43-8.39,0-8.39,1.07-19.03,1.07-31.31,0-7.98-.64-15.14-.64-20.26,0-21.08,1.5-34.17,1.5-37.44,0-3.48-5.36-4.91-8.57-4.91-3.86,0-9.42,2.05-18.42,2.05Z"/><path class="cls-1" d="M1647.99,481.73c3.86,0,6.64,2.86,8.14,7.78,3.21,11.05,8.14,28.24,15.85,51.97,3.43,10.23,7.28,30.49,16.49,59.54,1.5,4.5,3.64,4.3,8.35,4.3,6.43,0,10.28,1.43,10.28,5.52s-4.28,7.37-9.85,7.37c-1.93,0-3-.82-4.93-1.02-1.71-.2-2.78.2-4.71.2-3.43,0-5.57.41-9,0-10.92-1.23-16.92,0-16.92-6.14,0-4.71,2.57-6.14,8.35-6.14,4.28,0,7.07-.82,7.07-4.5,0-2.25-1.71-6.14-2.78-10.03-1.71-6.75-3-13.71-9.21-13.71-23.35,0-36.63,1.43-37.7,2.25-1.5,1.23-7.5,17.39-7.5,19.85,0,4.09,1.29,6.34,4.71,6.55,6.43.41,10.07,3.07,10.07,8.39,0,2.25-3.86,4.3-7.71,4.3s-9-1.64-15.42-1.64c-1.07,0-5.36,2.05-11.35,2.05-6.43,0-10.5-2.05-10.5-7.78,0-3.68,3.86-6.34,9-7.16,11.57-2.05,10.07,1.84,20.56-39.49,2.78-10.85,5.57-17.6,6.43-20.46,0,0,1.5-7.57,6.43-22.51,2.36-7.37,3.64-15.35,7.5-24.76,2.78-6.75,3.86-14.73,8.35-14.73ZM1648.85,509.15c-3,0-2.78,5.52-6.21,14.73-8.14,22.1-11.78,38.47-11.78,40.1,0,2.46,4.28,2.86,10.07,2.86,20.35,0,24.85,0,24.85-3.27,0-5.73-3.43-15.14-7.93-28.65-5.78-17.19-6.64-25.78-9-25.78Z"/><path class="cls-1" d="M1736.03,508.13c0-3.07.86-5.73.86-5.73,0-6.34-3-6.14-9.21-6.14-5.57,0-9-.2-9-3.48,0-6.96-.64-10.03,7.71-10.03,2.79,0,4.5-.2,7.28.2,0,0,4.5,2.25,14.78,2.25,7.5,0,11.57-1.43,11.57-1.43,7.5,0,12,1.84,12,5.52,0,1.43.21,3.48-1.29,5.12-.86.82-7.71,2.86-16.28,2.86-1.5,0-2.57-.2-4.07-.2-2.14,0-3,1.84-3,3.89,0,.82.21,1.23.21,2.05,0,3.27-.86,11.05-.86,21.69,0,6.75,1.29,12.28,1.29,15.76,0,3.27.64,6.34,3,6.34s7.07-4.71,13.07-12.07c16.28-20.05,30.2-29.26,30.2-34.99,0-4.5-1.93-3.68-6-4.5-3.64-.82-6.21-3.89-6.21-7.37,0-2.86,3.43-5.12,7.5-5.12,4.93,0,11.14,1.64,18.42,1.64,6,0,11.35-1.43,14.57-1.43,4.07,0,8.78-.2,8.78,4.71,0,9.62-5.36,7.78-12.85,7.78-7.07,0-7.5,2.45-11.57,6.96-6.43,6.96-10.71,12.69-14.35,16.37-9.43,9.82-15.42,15.35-15.42,16.98,0,4.09,8.57,11.25,14.14,24.55,6.43,15.14,16.28,28.44,19.92,36.01,4.71,9.62,5.14,8.8,9.42,8.8,0,0,3.21-.61,8.35-.61,4.28,0,6.43,2.05,6.43,6.14,0,12.48-9.21,5.73-24.85,5.73-4.93,0-7.71,1.43-12.64,1.43-.86,0-6.43-.61-9.43-1.23-3.86-.82-6.64-2.86-6.64-5.73,0-4.5,2.57-5.52,8.35-5.73,5.78-.21,9.64-.41,9.64-3.27,0-.21-4.28-9.41-11.35-21.89-3.86-6.75-6.85-10.23-10.28-17.39-5.14-10.44-7.71-17.19-10.07-17.19-3.21,0-20.56,19.85-20.56,21.69,0,2.46.64,6.34.64,9.21,0,3.07-.64,7.98-.64,13.5,0,15.76.86,15.35,7.5,15.35h12.21c2.79,0,5.36,2.66,5.36,5.52,0,3.68-3.64,7.16-9.85,7.16-1.71,0-6-1.23-11.57-1.23-11.57,0-20.14,2.45-23.99,2.45-5.14,0-8.57-3.68-8.57-8.18,0-3.07,2.14-6.14,4.5-6.14,3.86,0,6.43,1.02,9.64,1.02,3.64,0,3.64-3.68,3.64-10.64,0-3.07-.43-8.18-.43-13.3,0-6.75.86-16.37.86-27.83,0-6.55-.86-10.44-.86-16.98,0-9.62.64-14.94.64-14.94,0-4.3-.64-9.62-.64-13.91Z"/><path class="cls-1" d="M1921.11,506.7c0-2.46,1.93-6.75,3.64-11.05,6.21-16.37,22.71-17.6,34.92-10.03,5.14,3.07,10.71,15.55,10.71,22.1,0,2.05-1.93,11.46-3.21,14.73-2.57,6.75-6.64,13.1-12.42,16.98-5.36,3.68-8.14,5.52-8.14,8.18,0,.21,12.64,27.83,18.85,27.83,1.93,0,3-3.07,3.64-6.34,2.36-13.5,7.28-24.35,12.85-29.06,3.21-2.86,10.92-5.52,14.78-5.52,2.36,0,8.35,2.25,9.21,3.07,0,0,1.5,2.25,4.28,5.12,1.93,2.05,3.43,8.39,3.43,11.25,0,5.12-2.36,8.39-4.93,8.39-1.93,0-2.79-3.48-3.86-5.52-2.36-4.09-6.21-8.8-9.21-8.8-10.28,0-12.42,7.98-17.35,23.33-2.57,8.18-4.28,15.35-4.28,17.6,0,3.07,13.5,16.37,19.06,16.37s10.07-1.64,12.42-9c1.07-3.27,2.14-7.78,4.93-7.78,3.86,0,6.64.61,6.64,6.55,0,13.91-11.35,23.74-18.85,23.74s-16.92-4.09-23.56-12.28c-1.29-1.64-3.21-4.09-5.14-4.09-1.07,0-3,2.46-4.07,3.68-15.85,19.44-30.2,13.5-35.77,13.3-13.28-.61-12.64-3.89-17.14-7.16-5.78-4.3-13.28-15.76-13.28-22.51,0-1.84-.21-4.3-.21-4.91,0-.82.21-1.02.21-1.84,0-.61-.21-1.02-.21-1.64,0,0,1.07-1.43,1.07-3.48,0-5.32,4.5-15.96,5.78-17.6,3.86-5.12,10.92-10.03,15.42-13.71,3-2.46,8.78-4.3,8.78-7.16,0-4.91-9-13.3-9-32.74ZM1962.66,590.59c0-.41-6.85-8.18-14.99-20.87,0,0-3.43-3.68-8.35-13.71-1.29-2.66-1.93-4.5-5.57-4.5-.43,0-16.07,7.16-20.78,21.69-1.29,3.68-2.57,11.46-2.57,11.46,0,4.5,2.36,7.16,2.78,7.98,1.71,3.89,2.14,10.44,14.57,14.32,1.07.2,10.07,1.64,10.07,1.64,8.57,0,14.35-3.07,23.13-13.5,1.93-2.46,1.71-2.66,1.71-4.5ZM1945.74,493.81c-7.07,0-12.85,8.59-12.85,13.91,0,6.34,1.5,12.28,2.57,17.8,1.07,5.73,1.71,10.85,4.5,10.85,5.36,0,13.28-7.78,15.85-17.19.86-3.07,2.78-6.34,2.78-7.57,0-9.62-5.36-17.8-12.85-17.8Z"/><path class="cls-1" d="M2150.1,581.79s-1.5-10.03-2.57-15.96c-4.07-21.69-4.5-41.33-9-41.33-2.36,0-1.71,4.3-4.28,13.71-1.29,4.5-1.5,19.64-4.93,37.85-1.5,7.78-1.07,20.26-4.93,37.44-1.5,6.96-4.93,6.55-8.14,6.55-4.28,0-6.43-2.86-7.28-7.78-5.14-28.24-7.93-49.72-11.78-62.41-2.14-7.37-3.86-21.28-8.14-39.08-1.28-4.91-.64-12.69-6.43-15.55-1.07-.61-4.93-1.43-4.93-6.34,0-6.55,4.28-5.93,11.57-5.93h3c1.93,0,3.21-.41,5.14-.41,3.64,0,12,2.66,12,7.57,0,4.3-2.14,5.32-5.57,5.32-2.78,0-6.21-.21-6.21,3.68,0,0,1.93,10.84,3.43,16.98.86,3.89,5.57,20.05,10.28,49.72,1.71,10.43,4.07,17.19,6.21,17.19,4.07,0,2.14-22.1,5.78-28.65.21-.61.64-.82.64-1.43,0-.41-.43-2.46-.43-3.27,0-2.66,2.57-9.82,3-20.46.43-11.46,3.21-21.69,3.21-28.24s-5.57-6.34-7.93-7.16c-3.43-1.23-3.43-3.07-3.43-6.14,0-2.66,2.57-4.91,5.36-4.91,2.14,0,3.43,0,5.57.2,20.14,2.05,27.85-1.84,27.85,6.55,0,1.43-1.93,3.68-3.43,4.3-1.28.61-6.85,1.02-6.85,6.34,0,1.23.43,1.84.43,3.07,0,.82-.43,1.43-.43,2.25,0,1.64,1.29,4.91,1.29,7.16,0,1.23-.43,1.64-.43,2.86,0,.41,3.43,8.18,3.43,16.16,0,1.43,2.36,8.39,3.43,19.64,1.93,20.05,5.36,31.72,8.14,31.72,2.36,0,3.21-8.8,5.78-21.89,6.85-35.4,8.78-64.04,8.78-64.04,0-2.86-1.71-3.89-5.57-3.89h-1.5c-2.79,0-5.36-1.84-5.36-4.71,0-2.25,2.57-4.91,3.86-5.73,1.71-1.02,5.36-.82,8.14-.82,4.71,0,7.28,1.02,9.42,1.02,1.07,0,1.71-.41,2.79-.41,4.07,0,6.43,1.64,6.43,5.73,0,2.46-1.07,4.09-2.57,5.32-4.07,3.68-4.07,4.91-4.93,11.05-1.5,11.46-5.36,25.58-5.36,31.72,0,.41.21.61.21,1.02,0,0-1.71,4.5-1.93,10.03,0,0-4.28,18.21-8.57,44.81-2.78,17.19-4.07,26.4-10.28,26.4-8.35,0-7.93-2.66-10.5-20.67-.86-5.73-1.5-10.84-1.5-13.3v-2.86Z"/><path class="cls-1" d="M2246.49,501.99c0-4.91-3-5.52-5.78-5.52,0,0-6,.61-17.14.61-6.43,0-12-1.84-13.71-4.71-.86-1.43-.64-2.46-.64-4.09,0-4.91,5.36-6.55,14.35-6.55,2.36,0,3.21,1.43,5.57,1.43,4.93,0,10.07-.61,13.71-.61,4.93,0,11.78.41,19.49.41,5.57,0,10.92-.2,14.35-.2,11.57,0,15.21,2.46,15.21,7.57,0,5.93-4.5,6.75-12.85,6.75-5.78,0-11.14-2.66-14.78-2.66-4.71,0-7.07,3.48-7.07,9.41,0,4.91,1.5,16.37,1.5,32.12,0,8.18-1.07,14.73-1.07,18.62s1.28,8.39,1.28,13.3c0,3.89-.64,9.62-.64,15.76,0,1.84.43,3.07.43,4.91,0,2.25-.64,3.48-.64,5.73,0,4.91,2.57,10.23,5.78,10.23,4.28,0,11.14-1.43,18.85-1.43,7.07,0,11.78,2.46,11.78,6.75,0,7.78-6.85,7.57-14.35,7.57-5.78,0-11.78,1.43-17.14,1.43-10.5,0-15.42-1.84-15.42-1.84-9.43,0-19.28,1.84-29.35,1.84-3.86,0-8.14-3.89-8.14-7.37,0-6.14,4.28-8.8,11.57-8.8,4.07,0,9.85,1.84,16.28,1.84,2.57,0,6-1.84,7.28-3.89,1.28-2.25,1.28-8.8,1.28-18.42,0-4.5-1.07-6.75-1.07-11.25,0-2.86.43-4.5.43-7.37,0-4.3-.86-6.75-.86-11.05,0-3.27.64-5.12.64-8.39,0-5.32-.43-14.32-.43-25.78,0-1.02.43-1.64.43-2.66,0-.61-.21-.82-.21-1.43,0-4.3,1.07-8.59,1.07-12.28Z"/><path class="cls-1" d="M2340.31,513.24c0-16.78-2.14-17.8-7.93-17.8-1.5,0-5.78,1.02-10.5,1.02-2.78,0-6-3.27-6-6.14,0-1.23,1.71-5.12,2.14-5.32,0,0,6.21-.82,12.64-.82,3.21,0,5.14.41,8.35.41,3,0,4.71-.61,7.71-.61,5.78,0,4.71.82,9.43,6.96,1.71,2.46,4.28,10.84,10.5,24.35,21.21,45.42,29.35,73.46,33.85,73.46,1.28,0,2.78-1.64,2.78-2.86v-7.16c0-9.41-2.78-25.17-2.78-44.61,0-2.86.43-4.5.64-7.37.43-6.96-.43-10.85-.43-18.01,0-8.18.21-13.5-7.71-13.5-2.14,0-3.21.82-5.36.82-4.93,0-12-4.5-12-6.75,0-3.48,1.71-5.73,5.78-5.73,3.86,0,8.57,1.02,12.21,1.23,15.85,1.02,22.28-2.05,22.71-2.05,3.86,0,6.21.2,10.07,1.43,4.71,1.43,5.78,2.46,5.78,7.16,0,6.55-3.21,3.89-11.78,3.89-9.43,0-10.07,4.71-10.07,12.07,0,1.84.64,2.86,1.07,4.71.64,2.66.64,19.44,1.93,49.52,1.07,25.17.86,38.26.86,38.26.21,3.89.64,6.14.64,10.03,0,6.34-1.5,9-6.21,9-6.43,0-10.28.2-12.21-9.21-1.71-8.39-7.71-19.44-12.64-31.92,0,0-1.93-6.96-10.5-23.33-13.92-26.8-16.71-43.38-21.85-43.38-1.29,0-1.93,2.66-1.93,4.3v20.46c0,9.62,2.78,21.48,2.78,35.19,0,8.39-1.28,18.21-1.28,25.17,0,5.73,2.57,9.62,5.36,9.62,9.21,0,15.42-.61,16.71-.61,4.28,0,7.71,1.64,7.71,5.12,0,5.73-2.79,7.16-7.07,7.16s-7.93-1.02-8.78-1.02c-4.07,0-10.28,2.05-17.35,2.05-3.64,0-5.36-.82-9-.82-1.5,0-5.57.82-9.42.82-11.14,0-12.21-1.43-12.21-6.96,0-4.71,3.21-8.39,7.5-8.39,1.29,0,5.36.61,10.71.61,4.71,0,6.64-1.02,6.64-5.93,0-2.45-.43-3.89-.64-6.34-.21-4.5.43-6.96.43-11.46,0-9.82-1.71-23.53-1.71-40.1,0-10.44.43-16.16.43-26.6Z"/><path class="cls-1" d="M2457.05,498.1c-1.93,0-4.93-1.43-4.93-4.3,0-3.89.64-9,.64-9,1.28-1.23,4.5-2.25,8.35-2.25,4.28,0,8.57,2.05,11.14,2.05,3.64,0,9.21-1.02,15.21-1.02,7.28,0,25.28,1.23,53.77,1.23h6c12,0,16.49,1.02,16.49,6.96,0,1.23-.21,4.5-.21,7.16,0,10.23-.21,18.01-.21,22.3,0,5.32.64,9.82.64,11.66,0,3.89-2.14,7.16-4.71,7.16-4.07,0-6.85-2.46-6.85-6.34,0-2.25.86-5.32.86-7.37,0-2.66-.64-3.89-.64-6.55,0-1.43.21-2.25.21-3.68,0-6.14-1.29-5.93-3-8.18-.21-.21-.86-3.48-5.57-6.96-2.79-2.05-6.43-4.3-8.78-4.3-2.14,0-6,.61-9.64.61-6.21,0-13.28-1.02-19.71-1.02-16.49,0-10.07,4.71-12,26.4-.43,4.09-.86,6.14-.86,10.23,0,11.46,4.28,10.44,8.14,10.44,7.71,0,16.28-3.27,19.71-7.16,3.21-3.89,4.07-10.23,4.07-18.21,0-3.27.86-5.32,3.86-5.32,1.29,0,5.57,3.27,5.57,8.59,0,0-1.5,16.37-1.5,45.63,0,4.71.64,10.44.64,15.76,0,2.86-1.29,5.12-3.86,5.12-2.36,0-6.21-3.27-6.21-5.73,0-5.52.64-9.41.64-10.44,0-3.89-2.57-7.16-4.93-10.23-4.5-6.34-6.43-7.98-16.07-7.98s-9.43-.61-9.43,26.8c0,24.96-1.28,26.8,7.28,26.8,0,0,8.35-.82,23.99-.82,3.21,0,4.71.61,7.93.61,5.14,0,11.14-1.84,13.92-3.89,4.07-2.86,7.07-10.23,7.07-15.14,0-9-.64-13.91-.64-13.91,0-4.09,1.5-9,4.28-9,3.43,0,7.5,3.07,7.5,9.41,0,2.05-.64,8.39-.64,19.03,0,0,.21,5.73.64,8.59.43,3.68,1.5,5.73,1.5,9.41,0,3.27-3.21,9.21-9.64,9.21-9.85,0-18.64-2.25-23.78-2.25-3.21,0-8.78.82-15.21.82-.86,0-1.07-.2-1.93-.2-4.28-.61-6.85.41-11.14.41-10.5,0-19.28-.82-26.13-.82-8.14,0-16.07,1.23-22.49,1.23-3.21,0-4.93-1.84-4.93-5.12,0-5.93,1.07-9.82,4.07-9.82,3.64,0,6.64,1.23,6.64,1.23,1.07,0,1.71-.2,2.78-.2,1.71-.2,3,.2,4.71.2,13.28,0,12.85-1.02,12.85-7.57,0-3.27-.43-5.12-.43-8.39,0-8.39,1.07-19.03,1.07-31.31,0-7.98-.64-15.14-.64-20.26,0-21.08,1.5-34.17,1.5-37.44,0-3.48-5.36-4.91-8.57-4.91-3.86,0-9.43,2.05-18.42,2.05Z"/></g></svg>