<?xml version="1.0" encoding="UTF-8"?><svg id="Layer_2" xmlns="http://www.w3.org/2000/svg" viewBox="0 0 3017.18 2870.51"><defs><style>.cls-1{fill:#2c1601;}</style></defs><g id="Layer_1-2"><path class="cls-1" d="M1932.56,1085.37c-33.36,0-68.77-25.59-79.03-57.44L1527.05,23.89c-10.26-31.85-26.8-31.85-37.14,0l-326.1,1004.04c-10.34,31.85-45.75,57.44-79.34,57.44H28.89c-33.37,0-38.65,15.93-11.55,35.4l853.97,620.72c27.1,19.47,40.69,60.99,30.35,92.85l-326.4,1004.03c-10.34,31.55,3.25,41.59,30.35,21.82l853.97-620.42c27.1-19.7,70.73-19.7,97.9,0l854.2,620.72c26.87,19.47,40.38,9.74,30.12-22.12l-326.17-1004.03c-10.27-31.85,2.94-73.37,30.12-92.85l854.2-620.72c26.87-19.47,21.81-35.4-11.47-35.4h-1055.89Z"/></g></svg>